# xmcd CD database file
#
# Track frame offsets:
#	150
#	9642
#	29907
#	69435
#	146170
#	168855
#
# Disc length: 2659 seconds
#
# Revision: 3
# Processed by: cddbd v1.5.2PL0 Copyright (c) Steve Scherf et al.
# Submitted via: ACXtractor (MTCDDB.DLL V2003.12.21)
#
DISCID=510a6106
DTITLE=Albert King - Live '69
DYEAR=2003
DGENRE=Blues
TTITLE0=Introduction
TTITLE1=Why Are You So Mean To Me
TTITLE2=As The Years Go Passing By
TTITLE3=Please Come Back To Me
TTITLE4=Crosscut Saw
TTITLE5=Personal Manager
EXTD=ID3G:   0 YEAR: 2003
EXTT0=
EXTT1=
EXTT2=
EXTT3=
EXTT4=
EXTT5=
PLAYORDER=
